<?xml version="1.0" encoding="utf-8"?>
<!-- Generator: Adobe Illustrator 26.5.0, SVG Export Plug-In . SVG Version: 6.00 Build 0)  -->
<svg version="1.1" id="Layer_1" xmlns="http://www.w3.org/2000/svg" xmlns:xlink="http://www.w3.org/1999/xlink" x="0px" y="0px"
	 viewBox="0 0 2574 2574" style="enable-background:new 0 0 2574 2574;" xml:space="preserve">
<style type="text/css">
	.st0{stroke:#00FF04;stroke-miterlimit:10;}
	.st1{fill:#1c970e;stroke:#00FF04;stroke-miterlimit:10;}
	.st2{fill:#7d0b77;stroke:#00FF04;stroke-miterlimit:10;}
	.st3{fill:#d9620c;stroke:#00FF04;stroke-miterlimit:10;}
	.st4{fill:#2e54ff;stroke:#00FF04;stroke-miterlimit:10;}
	.st5{fill:#d14d06;stroke:#00FF04;stroke-miterlimit:10;}
	.st6{fill:#FFFFFF;}
</style>
<g id="a">
	<path class="st0" d="M420.8,59.5h1742.1c204.4,0,370.1,165.7,370.1,370.1v1742.1c0,204.4-165.7,370.1-370.1,370.1H420.8
		c-204.4,0-370.1-165.7-370.1-370.1V429.6C50.6,225.2,216.4,59.5,420.8,59.5z"/>
</g>
<g id="b">
	<path class="st1" d="M553.4,242.7h389.7c176.6,0,319.8,143.2,319.8,319.8v389.7c0,176.6-143.2,319.8-319.8,319.8H553.4
		c-176.6,0-319.8-143.2-319.8-319.8V562.5C233.6,385.9,376.8,242.7,553.4,242.7z"/>
</g>
<g id="c">
	<path class="st2" d="M1641.6,217.1h389.7c176.6,0,319.8,143.2,319.8,319.8v389.7c0,176.6-143.2,319.8-319.8,319.8h-389.7
		c-176.6,0-319.8-143.2-319.8-319.8V536.9C1321.8,360.3,1465,217.1,1641.6,217.1z"/>
</g>
<g id="d">
	<path class="st3" d="M1661.9,1339.7h389.7c176.6,0,319.8,143.2,319.8,319.8v389.7c0,176.6-143.2,319.8-319.8,319.8h-389.7
		c-176.6,0-319.8-143.2-319.8-319.8v-389.7C1342.1,1482.9,1485.3,1339.7,1661.9,1339.7z"/>
</g>
<g id="e">
	<path class="st4" d="M553.4,1339.7h389.7c176.6,0,319.8,143.2,319.8,319.8v389.7c0,176.6-143.2,319.8-319.8,319.8H553.4
		c-176.6,0-319.8-143.2-319.8-319.8v-389.7C233.6,1482.9,376.8,1339.7,553.4,1339.7z"/>
</g>
<g id="f">
	<path class="st5" d="M1567.7,145.8l869.4,869.4c154.6,154.6,154.6,405.4,0,560l-869.4,869.4c-154.6,154.6-405.4,154.6-560,0
		l-869.4-869.4c-154.6-154.6-154.6-405.4,0-560l869.4-869.4C1162.4-8.9,1413.1-8.9,1567.7,145.8z"/>
</g>
<g id="g">
	<g>
		<path class="st6" d="M596,1547.2l-33.3-87.4H279.6l-33.3,89.3c-13,34.8-24.1,58.4-33.3,70.6c-9.2,12.2-24.2,18.3-45.1,18.3
			c-17.7,0-33.4-6.5-47-19.5c-13.6-13-20.4-27.7-20.4-44.2c0-9.5,1.6-19.3,4.8-29.5c3.2-10.1,8.4-24.2,15.7-42.3l178.2-452.3
			c5.1-13,11.2-28.6,18.3-46.8c7.1-18.2,14.7-33.3,22.8-45.4c8.1-12,18.7-21.8,31.8-29.2c13.1-7.4,29.4-11.2,48.7-11.2
			s36,3.7,49.2,11.2c13.1,7.5,23.8,17,31.8,28.7c8.1,11.7,14.9,24.3,20.4,37.8c5.5,13.5,12.6,31.4,21.1,53.9l182,449.4
			c14.2,34.2,21.4,59.1,21.4,74.6s-6.7,31-20.2,44.4c-13.5,13.5-29.7,20.2-48.7,20.2c-11.1,0-20.6-2-28.5-5.9s-14.6-9.3-20-16.2
			c-5.4-6.8-11.2-17.3-17.3-31.4C605.8,1570.4,600.5,1558,596,1547.2L596,1547.2z M316.7,1353.9h208.1l-105-287.4L316.7,1353.9
			L316.7,1353.9z"/>
		<path class="st6" d="M889.9,1183.3v15.7c24.4-30.1,49.7-52.2,76-66.3c26.3-14.1,56.1-21.1,89.3-21.1c39.9,0,76.7,10.3,110.2,30.9
			c33.6,20.6,60.1,50.7,79.6,90.3c19.5,39.6,29.2,86.5,29.2,140.6c0,39.9-5.6,76.6-16.9,110c-11.2,33.4-26.7,61.4-46.3,84.1
			c-19.6,22.7-42.8,40.1-69.6,52.3c-26.8,12.2-55.5,18.3-86.2,18.3c-37.1,0-68.2-7.4-93.4-22.3c-25.2-14.9-49.2-36.7-72-65.6v194.8
			c0,57-20.8,85.5-62.2,85.5c-24.4,0-40.6-7.4-48.5-22.1c-7.9-14.7-11.9-36.2-11.9-64.4v-559.7c0-24.7,5.4-43.2,16.2-55.3
			c10.8-12.2,25.5-18.3,44.2-18.3s33.3,6.3,44.9,18.8C884.1,1141.9,889.9,1159.9,889.9,1183.3L889.9,1183.3z M1144.1,1371.9
			c0-34.2-5.2-63.6-15.7-88.1c-10.4-24.5-24.9-43.4-43.5-56.5c-18.5-13.1-39-19.7-61.5-19.7c-35.8,0-66,14.1-90.5,42.3
			c-24.6,28.2-36.8,69.7-36.8,124.5c0,51.6,12.2,91.8,36.6,120.4c24.4,28.7,54.6,43,90.7,43c21.5,0,41.5-6.2,59.9-18.8
			c18.4-12.5,33.1-31.3,44.2-56.3C1138.5,1437.6,1144.1,1407.4,1144.1,1371.9L1144.1,1371.9z"/>
		<path class="st6" d="M1768.6,1046h-153.9v506c0,29.1-6.5,50.8-19.5,64.8s-29.8,21.1-50.4,21.1s-37.9-7.1-51.1-21.4
			c-13.2-14.2-19.7-35.8-19.7-64.6v-506h-153.9c-24.1,0-42-5.3-53.7-15.9c-11.7-10.6-17.6-24.6-17.6-42s6.1-32.3,18.3-42.8
			c12.2-10.5,29.8-15.7,53-15.7h448.5c24.4,0,42.5,5.4,54.4,16.2c11.9,10.8,17.8,24.9,17.8,42.3s-6,31.4-18.1,42
			C1810.7,1040.7,1792.6,1046,1768.6,1046L1768.6,1046z"/>
		<path class="st6" d="M2132.7,1564.8v-16.6c-15.5,19.6-31.8,36.1-48.9,49.4s-35.8,23.2-56.1,29.7c-20.3,6.5-43.4,9.7-69.4,9.7
			c-31.4,0-59.5-6.5-84.3-19.5c-24.9-13-44.1-30.9-57.7-53.7c-16.1-27.6-24.2-67.1-24.2-118.8v-257c0-26,5.9-45.4,17.6-58.2
			c11.7-12.8,27.2-19.2,46.6-19.2s35.5,6.5,47.5,19.5c12,13,18.1,32.3,18.1,58v207.6c0,30.1,2.5,55.3,7.6,75.8
			c5.1,20.4,14.2,36.4,27.3,48c13.1,11.6,31,17.3,53.4,17.3s42.4-6.5,61.8-19.5c19.3-13,33.4-29.9,42.3-50.8
			c7.3-18.4,10.9-58.6,10.9-120.7v-157.7c0-25.7,6-45,18.1-58c12-13,27.7-19.5,47-19.5s34.8,6.4,46.6,19.2
			c11.7,12.8,17.6,32.2,17.6,58.2v375.8c0,24.7-5.6,43.2-16.9,55.6c-11.2,12.3-25.7,18.5-43.5,18.5s-32.4-6.4-43.9-19.2
			C2138.5,1605.9,2132.8,1587.9,2132.7,1564.8L2132.7,1564.8z"/>
		<path class="st6" d="M2312.6,1559.1V996.6c0-26,5.8-45.6,17.3-58.9s27.1-20,46.8-20s35.5,6.6,47.5,19.7
			c12,13.2,18.1,32.9,18.1,59.2v562.5c0,26.3-6.1,46-18.3,59.2c-12.2,13.1-28,19.7-47.3,19.7s-34.4-6.8-46.3-20.4
			C2318.5,1603.9,2312.6,1584.5,2312.6,1559.1L2312.6,1559.1z"/>
	</g>
</g>
</svg>
